<?xml version="1.0" encoding="UTF-8"?>
<svg xmlns="http://www.w3.org/2000/svg" xmlns:xlink="http://www.w3.org/1999/xlink" width="32px" height="32px" viewBox="0 0 32 32" version="1.1">
<g id="surface1">
<path style=" stroke:none;fill-rule:evenodd;fill:rgb(98.431373%,85.882353%,1.568627%);fill-opacity:1;" d="M 12.425781 4.949219 C 12.394531 4.960938 12.382812 5.222656 12.382812 6.097656 L 12.382812 7.226562 L 11.921875 7.453125 C 11.664062 7.578125 11.359375 7.738281 11.242188 7.8125 C 11.121094 7.882812 10.972656 7.972656 10.910156 8.007812 C 10.851562 8.042969 10.707031 8.140625 10.59375 8.222656 C 10.203125 8.507812 10.230469 8.5 10.074219 8.40625 C 9.996094 8.363281 9.886719 8.296875 9.824219 8.261719 C 9.761719 8.230469 9.53125 8.09375 9.3125 7.96875 C 9.09375 7.839844 8.847656 7.699219 8.769531 7.65625 C 8.6875 7.613281 8.542969 7.527344 8.445312 7.46875 C 8.34375 7.410156 8.253906 7.359375 8.246094 7.359375 C 8.230469 7.359375 8.121094 7.535156 7.929688 7.863281 C 7.824219 8.050781 7.757812 8.167969 7.214844 9.105469 C 6.570312 10.21875 6.578125 10.210938 6.496094 10.351562 C 6.460938 10.414062 6.40625 10.511719 6.371094 10.566406 C 6.179688 10.898438 5.230469 12.542969 5.183594 12.625 C 4.828125 13.234375 4.640625 13.570312 4.640625 13.589844 C 4.640625 13.605469 5.085938 13.867188 5.625 14.179688 C 6.507812 14.683594 6.609375 14.75 6.601562 14.820312 C 6.507812 16.042969 6.503906 16.117188 6.546875 16.671875 L 6.585938 17.230469 L 6.5 17.304688 C 6.453125 17.34375 6.40625 17.375 6.394531 17.375 C 6.382812 17.375 6.292969 17.421875 6.203125 17.476562 C 6.109375 17.53125 5.988281 17.601562 5.9375 17.632812 C 5.390625 17.949219 5.015625 18.164062 4.910156 18.222656 C 4.582031 18.40625 4.589844 18.375 4.789062 18.710938 C 4.871094 18.847656 4.964844 19.007812 4.996094 19.0625 C 5.089844 19.230469 5.179688 19.382812 5.242188 19.496094 C 5.277344 19.554688 5.347656 19.675781 5.402344 19.769531 C 5.457031 19.863281 5.503906 19.953125 5.503906 19.96875 C 5.503906 19.984375 5.519531 20 5.535156 20 C 5.554688 20 5.566406 20.015625 5.566406 20.03125 C 5.566406 20.046875 5.613281 20.136719 5.667969 20.230469 C 5.722656 20.324219 5.792969 20.441406 5.824219 20.496094 C 5.871094 20.582031 6.277344 21.285156 6.4375 21.558594 C 6.511719 21.691406 6.605469 21.855469 6.683594 21.996094 C 6.71875 22.054688 6.804688 22.199219 6.878906 22.320312 C 6.949219 22.4375 7.007812 22.539062 7.007812 22.546875 C 7.007812 22.550781 7.054688 22.632812 7.109375 22.726562 C 7.164062 22.820312 7.347656 23.132812 7.511719 23.425781 C 7.679688 23.714844 7.84375 24 7.875 24.054688 C 8.003906 24.273438 8.074219 24.402344 8.140625 24.519531 C 8.226562 24.679688 8.144531 24.707031 9.046875 24.1875 C 9.21875 24.089844 9.371094 24.003906 9.496094 23.933594 C 9.5625 23.894531 9.628906 23.855469 9.648438 23.839844 C 9.679688 23.816406 9.859375 23.714844 10.09375 23.589844 C 10.234375 23.511719 10.230469 23.511719 10.542969 23.742188 C 10.867188 23.984375 11.457031 24.324219 11.953125 24.5625 L 12.382812 24.769531 L 12.382812 25.902344 C 12.382812 26.902344 12.390625 27.035156 12.433594 27.050781 C 12.5 27.078125 19.5 27.078125 19.566406 27.050781 C 19.609375 27.035156 19.617188 26.902344 19.617188 25.902344 L 19.617188 24.769531 L 20.046875 24.5625 C 20.542969 24.324219 21.132812 23.984375 21.457031 23.742188 C 21.769531 23.511719 21.765625 23.511719 21.90625 23.589844 C 22.140625 23.714844 22.320312 23.816406 22.351562 23.839844 C 22.371094 23.855469 22.4375 23.894531 22.503906 23.933594 C 22.648438 24.015625 22.8125 24.105469 22.953125 24.1875 C 23.007812 24.222656 23.214844 24.339844 23.40625 24.449219 L 23.753906 24.648438 L 23.8125 24.570312 C 23.84375 24.53125 23.894531 24.445312 23.929688 24.382812 C 23.964844 24.324219 24.175781 23.957031 24.398438 23.566406 C 24.824219 22.835938 24.886719 22.726562 24.988281 22.550781 C 25.019531 22.496094 25.085938 22.382812 25.132812 22.304688 C 25.179688 22.226562 25.226562 22.136719 25.238281 22.105469 C 25.246094 22.074219 25.269531 22.046875 25.285156 22.046875 C 25.300781 22.046875 25.3125 22.035156 25.3125 22.019531 C 25.3125 21.996094 25.484375 21.6875 26.179688 20.488281 C 26.265625 20.335938 26.359375 20.175781 26.433594 20.039062 C 26.472656 19.972656 26.511719 19.90625 26.527344 19.886719 C 26.539062 19.871094 26.59375 19.777344 26.648438 19.679688 C 26.699219 19.582031 26.882812 19.265625 27.050781 18.972656 C 27.421875 18.332031 27.421875 18.414062 27.0625 18.214844 C 26.902344 18.121094 26.703125 18.007812 26.625 17.964844 C 26.488281 17.882812 26.382812 17.824219 26.203125 17.722656 C 26.164062 17.699219 26.121094 17.671875 26.113281 17.664062 C 26.101562 17.65625 26.054688 17.625 26 17.601562 C 25.945312 17.574219 25.84375 17.515625 25.769531 17.464844 C 25.695312 17.417969 25.625 17.375 25.609375 17.375 C 25.597656 17.375 25.542969 17.34375 25.496094 17.304688 L 25.410156 17.230469 L 25.445312 16.699219 C 25.476562 16.230469 25.460938 15.472656 25.398438 14.820312 C 25.394531 14.75 25.488281 14.6875 26.34375 14.195312 C 26.867188 13.890625 27.308594 13.632812 27.328125 13.613281 C 27.355469 13.582031 27.253906 13.386719 26.621094 12.296875 C 26.585938 12.238281 26.53125 12.144531 26.5 12.089844 C 26.46875 12.03125 26.199219 11.566406 25.902344 11.054688 C 25.609375 10.546875 25.339844 10.082031 25.308594 10.023438 C 25.273438 9.96875 25.222656 9.875 25.1875 9.816406 C 25.15625 9.757812 24.886719 9.292969 24.59375 8.785156 C 24.296875 8.273438 24.027344 7.808594 23.996094 7.753906 C 23.964844 7.695312 23.90625 7.59375 23.867188 7.527344 C 23.832031 7.460938 23.789062 7.394531 23.777344 7.382812 C 23.761719 7.367188 23.625 7.425781 23.472656 7.515625 C 23.324219 7.605469 23.191406 7.679688 23.183594 7.679688 C 23.179688 7.679688 23.058594 7.75 22.921875 7.832031 C 22.5625 8.054688 21.808594 8.480469 21.777344 8.480469 C 21.765625 8.480469 21.6875 8.429688 21.605469 8.371094 C 21.089844 7.996094 20.582031 7.695312 20.0625 7.453125 C 19.914062 7.386719 19.757812 7.308594 19.710938 7.28125 L 19.632812 7.234375 L 19.625 6.109375 C 19.617188 5.253906 19.605469 4.972656 19.574219 4.953125 C 19.53125 4.925781 12.492188 4.921875 12.425781 4.949219 M 16.824219 10.097656 C 19.496094 10.488281 21.511719 12.511719 21.90625 15.199219 C 21.96875 15.640625 21.980469 16.527344 21.925781 16.847656 C 21.867188 17.183594 21.820312 17.414062 21.792969 17.503906 C 21.777344 17.546875 21.75 17.648438 21.726562 17.726562 C 21.6875 17.875 21.644531 17.992188 21.597656 18.085938 C 21.582031 18.117188 21.566406 18.160156 21.566406 18.179688 C 21.566406 18.230469 21.253906 18.871094 21.152344 19.023438 C 21.105469 19.09375 21.058594 19.175781 21.050781 19.199219 C 20.914062 19.570312 19.570312 20.914062 19.199219 21.050781 C 19.175781 21.058594 19.09375 21.105469 19.023438 21.152344 C 18.871094 21.253906 18.230469 21.566406 18.179688 21.566406 C 18.160156 21.566406 18.117188 21.582031 18.085938 21.597656 C 17.992188 21.644531 17.875 21.6875 17.726562 21.726562 C 17.648438 21.75 17.546875 21.777344 17.503906 21.792969 C 17.417969 21.820312 17.199219 21.863281 16.847656 21.925781 C 16.722656 21.949219 16.351562 21.964844 16 21.964844 C 15.648438 21.964844 15.277344 21.949219 15.152344 21.925781 C 14.800781 21.863281 14.582031 21.820312 14.496094 21.792969 C 14.453125 21.777344 14.351562 21.75 14.273438 21.726562 C 14.125 21.6875 14.007812 21.644531 13.914062 21.597656 C 13.882812 21.582031 13.839844 21.566406 13.820312 21.566406 C 13.769531 21.566406 13.128906 21.253906 12.976562 21.152344 C 12.90625 21.105469 12.824219 21.058594 12.800781 21.050781 C 12.429688 20.914062 11.085938 19.570312 10.949219 19.199219 C 10.941406 19.175781 10.894531 19.09375 10.847656 19.023438 C 10.746094 18.871094 10.433594 18.230469 10.433594 18.179688 C 10.433594 18.160156 10.417969 18.117188 10.402344 18.085938 C 10.355469 17.992188 10.3125 17.875 10.273438 17.726562 C 10.25 17.648438 10.222656 17.546875 10.207031 17.503906 C 10.179688 17.414062 10.132812 17.183594 10.074219 16.847656 C 9.980469 16.300781 10.050781 15.21875 10.230469 14.511719 C 10.957031 11.609375 13.859375 9.664062 16.824219 10.097656 "/>
<path style=" stroke:none;fill-rule:evenodd;fill:rgb(90.980392%,3.921569%,12.54902%);fill-opacity:1;" d="M 15.089844 10.113281 C 12.449219 10.539062 10.484375 12.542969 10.09375 15.199219 C 10.03125 15.640625 10.019531 16.527344 10.074219 16.847656 C 10.132812 17.183594 10.179688 17.414062 10.207031 17.503906 C 10.222656 17.546875 10.25 17.648438 10.273438 17.726562 C 10.3125 17.875 10.355469 17.992188 10.402344 18.085938 C 10.417969 18.117188 10.433594 18.160156 10.433594 18.179688 C 10.433594 18.230469 10.746094 18.871094 10.847656 19.023438 C 10.894531 19.09375 10.941406 19.175781 10.949219 19.199219 C 11.085938 19.570312 12.429688 20.914062 12.800781 21.050781 C 12.824219 21.058594 12.90625 21.105469 12.976562 21.152344 C 13.128906 21.253906 13.769531 21.566406 13.820312 21.566406 C 13.839844 21.566406 13.882812 21.582031 13.914062 21.597656 C 14.007812 21.644531 14.125 21.6875 14.273438 21.726562 C 14.351562 21.75 14.453125 21.777344 14.496094 21.792969 C 14.582031 21.820312 14.800781 21.863281 15.152344 21.925781 C 15.277344 21.949219 15.648438 21.964844 16 21.964844 C 16.351562 21.964844 16.722656 21.949219 16.847656 21.925781 C 17.199219 21.863281 17.417969 21.820312 17.503906 21.792969 C 17.546875 21.777344 17.648438 21.75 17.726562 21.726562 C 17.875 21.6875 17.992188 21.644531 18.085938 21.597656 C 18.117188 21.582031 18.160156 21.566406 18.179688 21.566406 C 18.230469 21.566406 18.871094 21.253906 19.023438 21.152344 C 19.09375 21.105469 19.175781 21.058594 19.199219 21.050781 C 19.570312 20.914062 20.914062 19.570312 21.050781 19.199219 C 21.058594 19.175781 21.105469 19.09375 21.152344 19.023438 C 21.253906 18.871094 21.566406 18.230469 21.566406 18.179688 C 21.566406 18.160156 21.582031 18.117188 21.597656 18.085938 C 21.644531 17.992188 21.6875 17.875 21.726562 17.726562 C 21.75 17.648438 21.777344 17.546875 21.792969 17.503906 C 21.820312 17.414062 21.867188 17.183594 21.925781 16.847656 C 22.019531 16.300781 21.949219 15.21875 21.769531 14.511719 C 21.035156 11.578125 18.074219 9.628906 15.089844 10.113281 M 14.304688 12.851562 C 14.628906 13.039062 14.941406 13.21875 15 13.253906 C 15.183594 13.359375 15.292969 13.421875 16.238281 13.96875 C 16.75 14.261719 17.214844 14.53125 17.273438 14.5625 C 17.441406 14.660156 17.539062 14.71875 18.511719 15.28125 C 19.023438 15.574219 19.496094 15.847656 19.566406 15.890625 C 19.710938 15.96875 19.746094 16.046875 19.65625 16.074219 C 19.625 16.085938 19.542969 16.128906 19.472656 16.171875 C 19.277344 16.289062 18.390625 16.800781 18.382812 16.800781 C 18.378906 16.800781 18.28125 16.859375 18.164062 16.929688 C 18.046875 17 17.945312 17.054688 17.933594 17.054688 C 17.921875 17.054688 17.875 17.082031 17.828125 17.117188 C 17.78125 17.148438 17.691406 17.207031 17.625 17.246094 C 17.34375 17.402344 17.207031 17.480469 16.367188 17.96875 C 15.980469 18.191406 15.585938 18.421875 15.488281 18.472656 C 15.390625 18.527344 15.273438 18.597656 15.226562 18.628906 C 15.179688 18.660156 15.132812 18.6875 15.121094 18.6875 C 15.109375 18.6875 15.058594 18.714844 15.011719 18.746094 C 14.964844 18.78125 14.847656 18.851562 14.753906 18.902344 C 14.511719 19.035156 13.992188 19.335938 13.855469 19.417969 C 13.792969 19.457031 13.726562 19.488281 13.703125 19.488281 C 13.660156 19.488281 13.640625 12.671875 13.683594 12.5625 C 13.707031 12.5 13.632812 12.460938 14.304688 12.851562 "/>
<path style=" stroke:none;fill-rule:evenodd;fill:rgb(14.117647%,14.117647%,17.254902%);fill-opacity:1;" d="M 19.648438 6.097656 L 19.648438 7.214844 L 19.816406 7.292969 C 20.113281 7.425781 20.746094 7.75 20.929688 7.867188 C 21.265625 8.078125 21.679688 8.363281 21.691406 8.390625 C 21.710938 8.4375 21.871094 8.414062 21.953125 8.351562 C 21.996094 8.316406 22.050781 8.289062 22.070312 8.289062 C 22.09375 8.289062 22.113281 8.277344 22.113281 8.265625 C 22.113281 8.25 22.152344 8.222656 22.199219 8.199219 C 22.25 8.179688 22.363281 8.113281 22.457031 8.054688 L 22.621094 7.949219 L 19.648438 4.976562 L 19.648438 6.097656 M 23.96875 7.570312 C 23.96875 7.601562 24.117188 7.871094 24.394531 8.351562 C 24.429688 8.414062 24.488281 8.523438 24.523438 8.59375 C 24.5625 8.664062 24.597656 8.726562 24.609375 8.734375 C 24.617188 8.746094 24.640625 8.785156 24.664062 8.824219 C 24.6875 8.863281 24.722656 8.929688 24.742188 8.96875 C 24.765625 9.007812 24.792969 9.046875 24.800781 9.054688 C 24.808594 9.066406 24.835938 9.113281 24.863281 9.167969 C 24.890625 9.222656 24.917969 9.269531 24.929688 9.28125 C 24.9375 9.289062 24.964844 9.332031 24.988281 9.371094 C 25.097656 9.566406 25.148438 9.660156 25.242188 9.816406 C 25.296875 9.910156 25.34375 9.992188 25.34375 10 C 25.34375 10.003906 25.398438 10.101562 25.46875 10.210938 C 25.535156 10.324219 25.625 10.480469 25.671875 10.558594 C 25.714844 10.640625 25.785156 10.761719 25.824219 10.832031 C 25.863281 10.902344 25.929688 11.019531 25.964844 11.089844 C 26 11.160156 26.039062 11.222656 26.046875 11.230469 C 26.058594 11.242188 26.082031 11.28125 26.105469 11.320312 C 26.125 11.359375 26.160156 11.425781 26.183594 11.464844 C 26.207031 11.503906 26.230469 11.542969 26.238281 11.550781 C 26.25 11.5625 26.273438 11.601562 26.300781 11.644531 C 26.390625 11.808594 26.464844 11.941406 26.523438 12.039062 C 26.558594 12.097656 26.695312 12.339844 26.832031 12.574219 C 26.96875 12.8125 27.105469 13.054688 27.140625 13.113281 C 27.171875 13.167969 27.226562 13.265625 27.261719 13.324219 C 27.292969 13.382812 27.339844 13.460938 27.363281 13.5 C 27.421875 13.589844 27.382812 13.648438 27.183594 13.753906 C 27.097656 13.800781 27.015625 13.847656 27.007812 13.855469 C 27 13.863281 26.949219 13.894531 26.894531 13.921875 C 26.84375 13.945312 26.792969 13.976562 26.785156 13.984375 C 26.773438 13.992188 26.734375 14.019531 26.691406 14.042969 C 26.648438 14.066406 26.566406 14.113281 26.507812 14.148438 C 26.449219 14.179688 26.351562 14.234375 26.292969 14.269531 C 26.234375 14.300781 26.152344 14.347656 26.109375 14.371094 C 26.066406 14.398438 26.023438 14.421875 26.015625 14.433594 C 26.007812 14.441406 25.933594 14.484375 25.847656 14.527344 C 25.765625 14.570312 25.644531 14.644531 25.578125 14.691406 C 25.4375 14.785156 25.445312 14.695312 25.496094 15.601562 C 25.523438 16.058594 25.523438 16.332031 25.492188 16.714844 L 25.453125 17.222656 L 25.539062 17.28125 C 25.585938 17.316406 25.640625 17.34375 25.660156 17.34375 C 25.679688 17.34375 25.695312 17.355469 25.695312 17.367188 C 25.695312 17.382812 25.730469 17.40625 25.769531 17.425781 C 25.871094 17.472656 26.125 17.613281 26.144531 17.632812 C 26.152344 17.640625 26.191406 17.664062 26.230469 17.6875 C 26.273438 17.710938 26.335938 17.746094 26.375 17.769531 C 26.414062 17.789062 26.457031 17.816406 26.464844 17.824219 C 26.472656 17.832031 26.523438 17.863281 26.574219 17.886719 C 26.628906 17.914062 26.679688 17.941406 26.6875 17.953125 C 26.707031 17.972656 26.824219 18.039062 26.992188 18.125 C 27.0625 18.160156 27.128906 18.199219 27.136719 18.207031 C 27.144531 18.21875 27.195312 18.25 27.246094 18.277344 C 27.433594 18.382812 27.433594 18.394531 27.203125 18.792969 C 27.167969 18.859375 27.109375 18.957031 27.078125 19.015625 C 27.042969 19.074219 26.949219 19.234375 26.867188 19.371094 C 26.785156 19.507812 26.71875 19.625 26.71875 19.632812 C 26.71875 19.640625 26.675781 19.722656 26.621094 19.816406 C 26.503906 20.011719 26.40625 20.175781 26.234375 20.484375 C 26.210938 20.527344 26.183594 20.566406 26.175781 20.574219 C 26.167969 20.585938 26.140625 20.625 26.121094 20.664062 C 26.097656 20.703125 26.0625 20.769531 26.039062 20.808594 C 26.019531 20.847656 25.992188 20.886719 25.984375 20.894531 C 25.976562 20.90625 25.9375 20.96875 25.902344 21.039062 C 25.816406 21.207031 25.75 21.324219 25.726562 21.34375 C 25.71875 21.351562 25.691406 21.402344 25.664062 21.457031 C 25.636719 21.507812 25.550781 21.660156 25.476562 21.792969 C 25.398438 21.925781 25.292969 22.109375 25.238281 22.207031 C 25.183594 22.304688 25.117188 22.421875 25.082031 22.46875 C 25.050781 22.515625 25.023438 22.5625 25.023438 22.574219 C 25.023438 22.585938 24.980469 22.660156 24.929688 22.734375 C 24.875 22.8125 24.832031 22.890625 24.832031 22.910156 C 24.832031 22.929688 24.816406 22.945312 24.800781 22.945312 C 24.78125 22.945312 24.769531 22.972656 24.769531 23.007812 C 24.769531 23.042969 24.753906 23.070312 24.738281 23.070312 C 24.722656 23.070312 24.703125 23.097656 24.695312 23.128906 C 24.675781 23.183594 24.574219 23.359375 24.542969 23.390625 C 24.535156 23.402344 24.496094 23.464844 24.460938 23.535156 C 24.351562 23.738281 24.003906 24.351562 23.894531 24.527344 C 23.839844 24.617188 23.792969 24.691406 23.792969 24.695312 C 23.78125 24.710938 23.617188 24.621094 23.617188 24.601562 C 23.617188 24.585938 23.585938 24.574219 23.550781 24.574219 C 23.515625 24.574219 23.488281 24.5625 23.488281 24.542969 C 23.488281 24.527344 23.472656 24.511719 23.457031 24.511719 C 23.4375 24.511719 23.328125 24.453125 23.210938 24.382812 C 23.097656 24.3125 22.996094 24.257812 22.992188 24.257812 C 22.984375 24.257812 22.871094 24.191406 22.738281 24.113281 C 22.605469 24.03125 22.480469 23.96875 22.464844 23.96875 C 22.445312 23.96875 22.433594 23.957031 22.433594 23.945312 C 22.429688 23.929688 22.398438 23.90625 22.359375 23.886719 C 22.257812 23.839844 22.003906 23.699219 21.984375 23.679688 C 21.90625 23.605469 21.695312 23.550781 21.695312 23.609375 C 21.695312 23.621094 21.652344 23.660156 21.601562 23.691406 C 21.550781 23.722656 21.484375 23.765625 21.460938 23.792969 C 21.394531 23.859375 20.84375 24.199219 20.570312 24.34375 C 20.441406 24.410156 20.332031 24.476562 20.324219 24.488281 C 20.320312 24.5 20.285156 24.511719 20.253906 24.511719 C 20.21875 24.511719 20.191406 24.527344 20.191406 24.542969 C 20.191406 24.5625 20.164062 24.574219 20.128906 24.574219 C 20.097656 24.574219 20.058594 24.589844 20.046875 24.609375 C 20.039062 24.625 20 24.640625 19.964844 24.640625 C 19.933594 24.640625 19.902344 24.65625 19.902344 24.671875 C 19.902344 24.691406 19.875 24.703125 19.839844 24.703125 C 19.804688 24.703125 19.777344 24.71875 19.777344 24.734375 C 19.777344 24.753906 19.746094 24.769531 19.710938 24.769531 C 19.648438 24.769531 19.648438 24.789062 19.648438 25.921875 L 19.648438 27.070312 L 12.351562 27.070312 L 12.351562 25.921875 C 12.351562 24.789062 12.351562 24.769531 12.289062 24.769531 C 12.253906 24.769531 12.222656 24.753906 12.222656 24.734375 C 12.222656 24.71875 12.195312 24.703125 12.160156 24.703125 C 12.125 24.703125 12.097656 24.691406 12.097656 24.671875 C 12.097656 24.65625 12.066406 24.640625 12.035156 24.640625 C 12 24.640625 11.960938 24.625 11.953125 24.609375 C 11.941406 24.589844 11.902344 24.574219 11.871094 24.574219 C 11.835938 24.574219 11.808594 24.5625 11.808594 24.542969 C 11.808594 24.527344 11.78125 24.511719 11.746094 24.511719 C 11.714844 24.511719 11.679688 24.5 11.675781 24.488281 C 11.667969 24.476562 11.558594 24.410156 11.429688 24.34375 C 11.15625 24.199219 10.605469 23.859375 10.539062 23.792969 C 10.515625 23.765625 10.449219 23.722656 10.398438 23.691406 C 10.347656 23.660156 10.304688 23.621094 10.304688 23.609375 C 10.304688 23.550781 10.09375 23.605469 10.015625 23.679688 C 9.996094 23.699219 9.742188 23.839844 9.640625 23.886719 C 9.601562 23.90625 9.570312 23.929688 9.566406 23.945312 C 9.566406 23.957031 9.554688 23.96875 9.539062 23.96875 C 9.511719 23.96875 9.105469 24.195312 8.742188 24.410156 C 8.648438 24.464844 8.558594 24.511719 8.542969 24.511719 C 8.527344 24.511719 8.511719 24.527344 8.511719 24.542969 C 8.511719 24.5625 8.484375 24.574219 8.449219 24.574219 C 8.414062 24.574219 8.382812 24.589844 8.382812 24.609375 C 8.382812 24.625 8.363281 24.640625 8.335938 24.640625 C 8.21875 24.640625 8.488281 24.921875 11.933594 28.363281 L 15.578125 32.011719 L 16.757812 31.988281 C 18.089844 31.960938 18.015625 31.964844 18.015625 31.929688 C 18.015625 31.914062 18.101562 31.902344 18.207031 31.902344 C 18.3125 31.902344 18.40625 31.890625 18.414062 31.871094 C 18.425781 31.855469 18.453125 31.839844 18.472656 31.839844 C 18.496094 31.839844 18.492188 31.851562 18.464844 31.871094 C 18.433594 31.890625 18.429688 31.902344 18.453125 31.902344 C 18.476562 31.902344 18.5 31.890625 18.511719 31.871094 C 18.523438 31.855469 18.589844 31.839844 18.65625 31.839844 C 18.738281 31.839844 18.785156 31.824219 18.785156 31.800781 C 18.785156 31.773438 18.796875 31.777344 18.816406 31.808594 C 18.835938 31.839844 18.847656 31.84375 18.847656 31.816406 C 18.847656 31.789062 18.902344 31.777344 19.007812 31.777344 C 19.09375 31.777344 19.171875 31.761719 19.183594 31.742188 C 19.195312 31.726562 19.261719 31.710938 19.328125 31.710938 C 19.398438 31.710938 19.457031 31.699219 19.457031 31.679688 C 19.457031 31.664062 19.503906 31.648438 19.566406 31.648438 C 19.625 31.648438 19.683594 31.632812 19.695312 31.617188 C 19.707031 31.597656 19.765625 31.585938 19.824219 31.585938 C 19.882812 31.585938 19.941406 31.566406 19.953125 31.546875 C 19.96875 31.523438 19.984375 31.527344 20.003906 31.554688 C 20.023438 31.589844 20.03125 31.589844 20.03125 31.558594 C 20.03125 31.539062 20.066406 31.519531 20.113281 31.519531 C 20.15625 31.519531 20.191406 31.503906 20.191406 31.488281 C 20.191406 31.46875 20.207031 31.457031 20.226562 31.457031 C 20.246094 31.457031 20.25 31.472656 20.238281 31.496094 C 20.21875 31.527344 20.222656 31.527344 20.257812 31.496094 C 20.28125 31.472656 20.34375 31.457031 20.390625 31.457031 C 20.445312 31.457031 20.476562 31.441406 20.464844 31.425781 C 20.453125 31.40625 20.484375 31.390625 20.539062 31.390625 C 20.59375 31.390625 20.640625 31.378906 20.644531 31.363281 C 20.652344 31.34375 20.710938 31.328125 20.777344 31.324219 C 20.84375 31.320312 20.894531 31.300781 20.894531 31.289062 C 20.894531 31.273438 20.921875 31.269531 20.957031 31.277344 C 20.992188 31.289062 21.035156 31.28125 21.058594 31.253906 C 21.082031 31.230469 21.132812 31.21875 21.175781 31.226562 C 21.214844 31.234375 21.246094 31.222656 21.246094 31.203125 C 21.246094 31.183594 21.273438 31.167969 21.304688 31.167969 C 21.335938 31.167969 21.382812 31.148438 21.40625 31.128906 C 21.441406 31.097656 21.445312 31.097656 21.425781 31.128906 C 21.40625 31.164062 21.414062 31.164062 21.460938 31.140625 C 21.492188 31.121094 21.566406 31.089844 21.625 31.066406 C 21.679688 31.042969 21.726562 31.011719 21.726562 31 C 21.726562 30.988281 21.769531 30.976562 21.820312 30.976562 C 21.875 30.976562 21.925781 30.960938 21.9375 30.945312 C 21.945312 30.925781 21.984375 30.910156 22.019531 30.910156 C 22.054688 30.910156 22.074219 30.898438 22.0625 30.878906 C 22.046875 30.851562 22.136719 30.832031 22.234375 30.847656 C 22.257812 30.847656 22.269531 30.835938 22.257812 30.816406 C 22.246094 30.800781 22.25 30.78125 22.269531 30.78125 C 22.351562 30.769531 22.363281 30.765625 22.386719 30.742188 C 22.398438 30.730469 22.4375 30.71875 22.46875 30.71875 C 22.5 30.71875 22.527344 30.710938 22.527344 30.695312 C 22.527344 30.664062 22.683594 30.59375 22.75 30.59375 C 22.773438 30.59375 22.828125 30.5625 22.871094 30.523438 C 22.914062 30.480469 22.945312 30.46875 22.945312 30.492188 C 22.945312 30.515625 22.972656 30.5 23.011719 30.460938 C 23.046875 30.417969 23.066406 30.402344 23.054688 30.425781 C 23.046875 30.445312 23.050781 30.464844 23.066406 30.464844 C 23.082031 30.464844 23.105469 30.441406 23.117188 30.414062 C 23.125 30.390625 23.15625 30.367188 23.179688 30.367188 C 23.203125 30.367188 23.242188 30.347656 23.265625 30.320312 C 23.285156 30.292969 23.328125 30.273438 23.359375 30.273438 C 23.386719 30.273438 23.441406 30.242188 23.480469 30.207031 C 23.519531 30.171875 23.582031 30.144531 23.625 30.144531 C 23.664062 30.144531 23.71875 30.113281 23.742188 30.078125 C 23.769531 30.042969 23.808594 30.015625 23.832031 30.015625 C 23.855469 30.015625 23.871094 30 23.871094 29.980469 C 23.871094 29.964844 23.886719 29.957031 23.90625 29.96875 C 23.925781 29.980469 23.953125 29.976562 23.96875 29.953125 C 23.980469 29.933594 24.011719 29.914062 24.039062 29.910156 C 24.066406 29.90625 24.113281 29.882812 24.140625 29.859375 C 24.167969 29.835938 24.191406 29.828125 24.191406 29.839844 C 24.191406 29.855469 24.21875 29.835938 24.25 29.796875 C 24.285156 29.757812 24.324219 29.726562 24.34375 29.726562 C 24.363281 29.726562 24.417969 29.707031 24.46875 29.679688 C 24.519531 29.652344 24.546875 29.632812 24.535156 29.632812 C 24.519531 29.632812 24.527344 29.613281 24.550781 29.585938 C 24.582031 29.554688 24.597656 29.554688 24.617188 29.578125 C 24.628906 29.601562 24.640625 29.59375 24.640625 29.558594 C 24.640625 29.527344 24.65625 29.507812 24.671875 29.519531 C 24.691406 29.53125 24.703125 29.523438 24.703125 29.507812 C 24.703125 29.488281 24.726562 29.472656 24.753906 29.472656 C 24.78125 29.472656 24.792969 29.457031 24.785156 29.441406 C 24.773438 29.421875 24.792969 29.40625 24.832031 29.40625 C 24.867188 29.40625 24.894531 29.394531 24.894531 29.375 C 24.894531 29.359375 24.917969 29.34375 24.945312 29.34375 C 24.96875 29.34375 24.992188 29.328125 24.992188 29.3125 C 24.992188 29.292969 25.011719 29.28125 25.039062 29.28125 C 25.066406 29.28125 25.089844 29.265625 25.089844 29.246094 C 25.089844 29.230469 25.113281 29.214844 25.144531 29.214844 C 25.175781 29.214844 25.21875 29.1875 25.242188 29.152344 C 25.261719 29.117188 25.296875 29.089844 25.320312 29.089844 C 25.34375 29.089844 25.386719 29.0625 25.414062 29.03125 C 25.507812 28.933594 25.5625 28.894531 25.621094 28.894531 C 25.664062 28.894531 25.667969 28.886719 25.636719 28.867188 C 25.605469 28.847656 25.621094 28.832031 25.695312 28.800781 C 25.746094 28.777344 25.792969 28.746094 25.792969 28.730469 C 25.792969 28.714844 25.816406 28.703125 25.84375 28.703125 C 25.871094 28.703125 25.882812 28.691406 25.871094 28.671875 C 25.859375 28.65625 25.867188 28.640625 25.882812 28.640625 C 25.902344 28.640625 25.957031 28.605469 26.003906 28.558594 C 26.050781 28.515625 26.109375 28.480469 26.132812 28.480469 C 26.160156 28.480469 26.171875 28.464844 26.160156 28.449219 C 26.140625 28.417969 26.183594 28.402344 26.246094 28.414062 C 26.261719 28.414062 26.273438 28.394531 26.273438 28.367188 C 26.273438 28.339844 26.285156 28.320312 26.300781 28.320312 C 26.316406 28.320312 26.394531 28.253906 26.476562 28.175781 C 26.554688 28.097656 26.644531 28.03125 26.671875 28.03125 C 26.699219 28.03125 26.71875 28.011719 26.71875 27.984375 C 26.71875 27.960938 26.75 27.929688 26.785156 27.917969 C 26.820312 27.910156 26.839844 27.886719 26.832031 27.871094 C 26.820312 27.851562 26.835938 27.839844 26.863281 27.839844 C 26.890625 27.839844 26.90625 27.824219 26.894531 27.808594 C 26.886719 27.789062 26.898438 27.777344 26.929688 27.777344 C 26.957031 27.777344 26.972656 27.761719 26.960938 27.742188 C 26.949219 27.726562 26.964844 27.710938 26.992188 27.710938 C 27.019531 27.710938 27.035156 27.699219 27.023438 27.679688 C 27.011719 27.664062 27.027344 27.648438 27.058594 27.648438 C 27.089844 27.648438 27.105469 27.640625 27.09375 27.628906 C 27.082031 27.617188 27.125 27.566406 27.1875 27.515625 C 27.253906 27.464844 27.296875 27.425781 27.285156 27.425781 C 27.269531 27.425781 27.292969 27.390625 27.335938 27.347656 C 27.375 27.304688 27.414062 27.277344 27.421875 27.285156 C 27.425781 27.289062 27.472656 27.246094 27.519531 27.183594 C 27.566406 27.125 27.617188 27.082031 27.628906 27.09375 C 27.640625 27.105469 27.648438 27.089844 27.648438 27.058594 C 27.648438 27.027344 27.664062 27.011719 27.679688 27.023438 C 27.699219 27.035156 27.710938 27.019531 27.710938 26.992188 C 27.710938 26.964844 27.726562 26.949219 27.742188 26.960938 C 27.761719 26.972656 27.777344 26.957031 27.777344 26.929688 C 27.777344 26.898438 27.789062 26.886719 27.808594 26.894531 C 27.824219 26.90625 27.839844 26.890625 27.839844 26.863281 C 27.839844 26.835938 27.851562 26.820312 27.871094 26.832031 C 27.886719 26.839844 27.910156 26.820312 27.917969 26.785156 C 27.929688 26.75 27.960938 26.71875 27.984375 26.71875 C 28.011719 26.71875 28.03125 26.699219 28.03125 26.671875 C 28.03125 26.644531 28.097656 26.554688 28.175781 26.476562 C 28.253906 26.394531 28.320312 26.316406 28.320312 26.300781 C 28.320312 26.285156 28.339844 26.273438 28.367188 26.273438 C 28.394531 26.273438 28.414062 26.261719 28.414062 26.246094 C 28.402344 26.183594 28.417969 26.140625 28.449219 26.160156 C 28.464844 26.171875 28.480469 26.160156 28.480469 26.132812 C 28.480469 26.109375 28.515625 26.050781 28.558594 26.003906 C 28.605469 25.957031 28.640625 25.902344 28.640625 25.882812 C 28.640625 25.867188 28.65625 25.859375 28.671875 25.871094 C 28.691406 25.882812 28.703125 25.871094 28.703125 25.84375 C 28.703125 25.816406 28.714844 25.792969 28.730469 25.792969 C 28.746094 25.792969 28.777344 25.746094 28.800781 25.695312 C 28.832031 25.621094 28.847656 25.605469 28.867188 25.636719 C 28.886719 25.667969 28.894531 25.664062 28.894531 25.621094 C 28.894531 25.5625 28.933594 25.507812 29.03125 25.414062 C 29.0625 25.386719 29.089844 25.34375 29.089844 25.320312 C 29.089844 25.296875 29.117188 25.261719 29.152344 25.242188 C 29.1875 25.21875 29.214844 25.175781 29.214844 25.144531 C 29.214844 25.113281 29.230469 25.089844 29.246094 25.089844 C 29.265625 25.089844 29.28125 25.066406 29.28125 25.039062 C 29.28125 25.011719 29.292969 24.992188 29.3125 24.992188 C 29.328125 24.992188 29.34375 24.96875 29.34375 24.945312 C 29.34375 24.917969 29.359375 24.894531 29.375 24.894531 C 29.394531 24.894531 29.40625 24.867188 29.40625 24.832031 C 29.40625 24.792969 29.421875 24.773438 29.441406 24.785156 C 29.457031 24.792969 29.472656 24.78125 29.472656 24.753906 C 29.472656 24.726562 29.488281 24.703125 29.507812 24.703125 C 29.523438 24.703125 29.53125 24.691406 29.519531 24.671875 C 29.507812 24.65625 29.527344 24.640625 29.558594 24.640625 C 29.59375 24.640625 29.601562 24.628906 29.578125 24.617188 C 29.554688 24.597656 29.554688 24.582031 29.585938 24.550781 C 29.613281 24.527344 29.632812 24.519531 29.632812 24.535156 C 29.632812 24.546875 29.652344 24.519531 29.679688 24.46875 C 29.707031 24.417969 29.726562 24.363281 29.726562 24.34375 C 29.726562 24.324219 29.757812 24.285156 29.796875 24.25 C 29.835938 24.21875 29.855469 24.191406 29.839844 24.191406 C 29.828125 24.191406 29.835938 24.167969 29.859375 24.140625 C 29.882812 24.113281 29.90625 24.066406 29.910156 24.039062 C 29.914062 24.011719 29.933594 23.980469 29.953125 23.96875 C 29.976562 23.953125 29.980469 23.925781 29.96875 23.90625 C 29.957031 23.886719 29.964844 23.871094 29.980469 23.871094 C 30 23.871094 30.015625 23.855469 30.015625 23.832031 C 30.015625 23.808594 30.042969 23.769531 30.078125 23.742188 C 30.113281 23.71875 30.144531 23.664062 30.144531 23.625 C 30.144531 23.582031 30.171875 23.519531 30.207031 23.480469 C 30.242188 23.441406 30.273438 23.386719 30.273438 23.359375 C 30.273438 23.328125 30.292969 23.285156 30.320312 23.265625 C 30.347656 23.242188 30.367188 23.203125 30.367188 23.179688 C 30.367188 23.15625 30.390625 23.125 30.414062 23.117188 C 30.441406 23.105469 30.464844 23.082031 30.464844 23.066406 C 30.464844 23.050781 30.445312 23.046875 30.425781 23.054688 C 30.402344 23.066406 30.417969 23.046875 30.460938 23.011719 C 30.5 22.972656 30.515625 22.945312 30.492188 22.945312 C 30.46875 22.945312 30.480469 22.914062 30.523438 22.871094 C 30.5625 22.828125 30.59375 22.773438 30.59375 22.75 C 30.59375 22.683594 30.664062 22.527344 30.695312 22.527344 C 30.710938 22.527344 30.71875 22.5 30.71875 22.46875 C 30.71875 22.4375 30.730469 22.398438 30.742188 22.386719 C 30.765625 22.363281 30.769531 22.351562 30.78125 22.269531 C 30.78125 22.25 30.800781 22.246094 30.816406 22.257812 C 30.835938 22.269531 30.847656 22.257812 30.847656 22.234375 C 30.832031 22.136719 30.851562 22.046875 30.878906 22.0625 C 30.898438 22.074219 30.910156 22.054688 30.910156 22.019531 C 30.910156 21.984375 30.925781 21.945312 30.945312 21.9375 C 30.960938 21.925781 30.976562 21.875 30.976562 21.820312 C 30.976562 21.769531 30.988281 21.726562 31 21.726562 C 31.011719 21.726562 31.042969 21.679688 31.066406 21.625 C 31.089844 21.566406 31.121094 21.492188 31.140625 21.460938 C 31.164062 21.414062 31.164062 21.40625 31.128906 21.425781 C 31.097656 21.445312 31.097656 21.441406 31.128906 21.40625 C 31.148438 21.382812 31.167969 21.335938 31.167969 21.304688 C 31.167969 21.273438 31.183594 21.246094 31.203125 21.246094 C 31.222656 21.246094 31.234375 21.214844 31.226562 21.175781 C 31.21875 21.132812 31.230469 21.082031 31.253906 21.058594 C 31.28125 21.035156 31.289062 20.992188 31.277344 20.957031 C 31.269531 20.921875 31.273438 20.894531 31.289062 20.894531 C 31.300781 20.894531 31.320312 20.84375 31.324219 20.777344 C 31.328125 20.710938 31.34375 20.652344 31.363281 20.644531 C 31.378906 20.640625 31.390625 20.59375 31.390625 20.539062 C 31.390625 20.484375 31.40625 20.453125 31.425781 20.464844 C 31.441406 20.476562 31.457031 20.445312 31.457031 20.390625 C 31.457031 20.34375 31.472656 20.28125 31.496094 20.257812 C 31.527344 20.222656 31.527344 20.21875 31.496094 20.238281 C 31.472656 20.25 31.457031 20.246094 31.457031 20.226562 C 31.457031 20.207031 31.46875 20.191406 31.488281 20.191406 C 31.503906 20.191406 31.519531 20.15625 31.519531 20.113281 C 31.519531 20.066406 31.539062 20.03125 31.558594 20.03125 C 31.589844 20.03125 31.589844 20.023438 31.554688 20.003906 C 31.527344 19.984375 31.523438 19.96875 31.546875 19.953125 C 31.566406 19.941406 31.585938 19.882812 31.585938 19.824219 C 31.585938 19.765625 31.597656 19.707031 31.617188 19.695312 C 31.632812 19.683594 31.648438 19.625 31.648438 19.566406 C 31.648438 19.503906 31.664062 19.457031 31.679688 19.457031 C 31.699219 19.457031 31.710938 19.398438 31.710938 19.328125 C 31.710938 19.261719 31.726562 19.195312 31.742188 19.183594 C 31.761719 19.171875 31.777344 19.09375 31.777344 19.007812 C 31.777344 18.902344 31.789062 18.847656 31.816406 18.847656 C 31.84375 18.847656 31.839844 18.835938 31.808594 18.816406 C 31.777344 18.796875 31.773438 18.785156 31.800781 18.785156 C 31.824219 18.785156 31.839844 18.738281 31.839844 18.65625 C 31.839844 18.589844 31.855469 18.523438 31.871094 18.511719 C 31.890625 18.5 31.902344 18.476562 31.902344 18.453125 C 31.902344 18.429688 31.890625 18.433594 31.871094 18.464844 C 31.851562 18.492188 31.839844 18.496094 31.839844 18.472656 C 31.839844 18.453125 31.855469 18.425781 31.871094 18.414062 C 31.890625 18.40625 31.902344 18.3125 31.902344 18.207031 C 31.902344 18.101562 31.914062 18.015625 31.929688 18.015625 C 31.964844 18.015625 31.964844 18.089844 31.984375 16.753906 L 32.007812 15.566406 L 27.988281 11.550781 C 25.777344 9.34375 23.96875 7.550781 23.96875 7.570312 M 5.617188 14.59375 C 6.074219 15.050781 6.457031 15.425781 6.46875 15.425781 C 6.5 15.425781 6.523438 15.265625 6.535156 14.996094 L 6.542969 14.773438 L 6.421875 14.691406 C 6.355469 14.644531 6.234375 14.570312 6.152344 14.527344 C 6.066406 14.484375 5.992188 14.441406 5.984375 14.433594 C 5.976562 14.421875 5.933594 14.398438 5.890625 14.371094 C 5.847656 14.347656 5.765625 14.300781 5.707031 14.269531 C 5.648438 14.234375 5.550781 14.179688 5.492188 14.148438 C 5.433594 14.113281 5.351562 14.066406 5.308594 14.042969 C 5.265625 14.019531 5.226562 13.992188 5.214844 13.984375 C 5.207031 13.976562 5.15625 13.945312 5.105469 13.921875 C 5.050781 13.894531 5 13.863281 4.992188 13.855469 C 4.964844 13.828125 4.835938 13.761719 4.808594 13.761719 C 4.796875 13.761719 5.160156 14.132812 5.617188 14.59375 "/>
<path style=" stroke:none;fill-rule:evenodd;fill:rgb(26.666667%,29.803922%,32.941176%);fill-opacity:1;" d="M 14.320312 0.0234375 C 14.160156 0.0273438 14.019531 0.046875 14 0.0664062 C 13.984375 0.0820312 13.875 0.0976562 13.753906 0.0976562 C 13.628906 0.0976562 13.535156 0.109375 13.535156 0.128906 C 13.535156 0.144531 13.457031 0.160156 13.363281 0.160156 C 13.265625 0.160156 13.179688 0.175781 13.167969 0.191406 C 13.15625 0.210938 13.078125 0.222656 12.992188 0.222656 C 12.90625 0.222656 12.828125 0.238281 12.816406 0.257812 C 12.804688 0.273438 12.738281 0.289062 12.671875 0.289062 C 12.601562 0.289062 12.542969 0.300781 12.542969 0.320312 C 12.542969 0.335938 12.488281 0.351562 12.417969 0.351562 C 12.347656 0.351562 12.28125 0.367188 12.273438 0.382812 C 12.261719 0.402344 12.195312 0.414062 12.128906 0.414062 C 12.058594 0.414062 11.996094 0.429688 11.984375 0.449219 C 11.972656 0.464844 11.921875 0.480469 11.871094 0.480469 C 11.816406 0.480469 11.777344 0.496094 11.777344 0.511719 C 11.777344 0.53125 11.726562 0.542969 11.664062 0.542969 C 11.605469 0.542969 11.546875 0.558594 11.535156 0.574219 C 11.523438 0.59375 11.472656 0.609375 11.421875 0.609375 C 11.371094 0.609375 11.328125 0.621094 11.328125 0.640625 C 11.328125 0.65625 11.289062 0.671875 11.242188 0.671875 C 11.152344 0.671875 10.71875 0.804688 10.5 0.902344 C 10.421875 0.9375 10.332031 0.964844 10.300781 0.96875 C 10.265625 0.972656 10.238281 0.984375 10.238281 1 C 10.238281 1.011719 10.210938 1.023438 10.179688 1.023438 C 10.144531 1.023438 10.105469 1.039062 10.097656 1.054688 C 10.085938 1.074219 10.042969 1.089844 10 1.089844 C 9.957031 1.089844 9.921875 1.101562 9.921875 1.121094 C 9.921875 1.136719 9.898438 1.152344 9.871094 1.152344 C 9.84375 1.152344 9.792969 1.167969 9.757812 1.183594 C 9.726562 1.203125 9.667969 1.230469 9.632812 1.246094 C 9.597656 1.265625 9.546875 1.28125 9.519531 1.28125 C 9.492188 1.28125 9.472656 1.292969 9.472656 1.3125 C 9.472656 1.328125 9.441406 1.34375 9.40625 1.34375 C 9.371094 1.34375 9.34375 1.359375 9.34375 1.375 C 9.34375 1.394531 9.316406 1.40625 9.28125 1.40625 C 9.246094 1.40625 9.210938 1.421875 9.199219 1.441406 C 9.1875 1.457031 9.152344 1.472656 9.117188 1.472656 C 9.082031 1.472656 9.054688 1.488281 9.054688 1.503906 C 9.054688 1.523438 9.027344 1.535156 8.992188 1.535156 C 8.957031 1.535156 8.929688 1.550781 8.929688 1.566406 C 8.929688 1.585938 8.902344 1.601562 8.867188 1.601562 C 8.832031 1.601562 8.800781 1.609375 8.792969 1.625 C 8.789062 1.636719 8.722656 1.679688 8.648438 1.71875 C 8.574219 1.757812 8.449219 1.824219 8.375 1.863281 C 8.300781 1.902344 8.234375 1.945312 8.230469 1.960938 C 8.222656 1.972656 8.191406 1.984375 8.160156 1.984375 C 8.128906 1.984375 8.097656 1.996094 8.089844 2.007812 C 8.085938 2.019531 8.023438 2.058594 7.953125 2.09375 C 7.882812 2.128906 7.761719 2.195312 7.6875 2.246094 C 7.609375 2.296875 7.535156 2.335938 7.519531 2.335938 C 7.5 2.335938 7.488281 2.347656 7.488281 2.363281 C 7.488281 2.378906 7.445312 2.410156 7.390625 2.433594 C 7.339844 2.453125 7.296875 2.484375 7.296875 2.5 C 7.296875 2.515625 7.277344 2.527344 7.253906 2.527344 C 7.230469 2.527344 7.179688 2.558594 7.144531 2.59375 C 7.105469 2.628906 7.054688 2.65625 7.03125 2.65625 C 7.007812 2.65625 6.96875 2.683594 6.945312 2.71875 C 6.917969 2.753906 6.882812 2.785156 6.863281 2.785156 C 6.839844 2.785156 6.78125 2.828125 6.726562 2.878906 C 6.667969 2.933594 6.605469 2.976562 6.582031 2.976562 C 6.5625 2.976562 6.519531 3.003906 6.496094 3.039062 C 6.46875 3.074219 6.429688 3.105469 6.410156 3.105469 C 6.386719 3.105469 6.367188 3.117188 6.367188 3.136719 C 6.367188 3.152344 6.351562 3.167969 6.335938 3.167969 C 6.316406 3.167969 6.269531 3.199219 6.226562 3.238281 C 6.144531 3.320312 6.027344 3.414062 5.917969 3.488281 C 5.875 3.515625 5.808594 3.566406 5.769531 3.605469 C 5.730469 3.644531 5.695312 3.667969 5.695312 3.660156 C 5.695312 3.652344 5.640625 3.699219 5.574219 3.765625 C 5.511719 3.835938 5.40625 3.925781 5.34375 3.96875 C 5.234375 4.042969 4.75 4.511719 4.78125 4.511719 C 4.789062 4.511719 4.734375 4.574219 4.660156 4.648438 C 4.589844 4.722656 4.523438 4.78125 4.515625 4.78125 C 4.496094 4.769531 4.050781 5.230469 3.96875 5.34375 C 3.925781 5.40625 3.835938 5.511719 3.765625 5.574219 C 3.699219 5.640625 3.652344 5.695312 3.660156 5.695312 C 3.667969 5.695312 3.644531 5.730469 3.605469 5.769531 C 3.566406 5.808594 3.515625 5.875 3.488281 5.917969 C 3.414062 6.027344 3.320312 6.144531 3.238281 6.226562 C 3.199219 6.269531 3.167969 6.316406 3.167969 6.335938 C 3.167969 6.351562 3.152344 6.367188 3.136719 6.367188 C 3.117188 6.367188 3.105469 6.386719 3.105469 6.410156 C 3.105469 6.429688 3.074219 6.46875 3.039062 6.496094 C 3.003906 6.519531 2.976562 6.5625 2.976562 6.582031 C 2.976562 6.605469 2.933594 6.667969 2.878906 6.726562 C 2.828125 6.78125 2.785156 6.839844 2.785156 6.863281 C 2.785156 6.882812 2.753906 6.917969 2.71875 6.945312 C 2.683594 6.96875 2.65625 7.007812 2.65625 7.03125 C 2.65625 7.054688 2.628906 7.105469 2.59375 7.144531 C 2.558594 7.179688 2.527344 7.230469 2.527344 7.253906 C 2.527344 7.277344 2.515625 7.296875 2.5 7.296875 C 2.484375 7.296875 2.453125 7.339844 2.433594 7.390625 C 2.410156 7.445312 2.378906 7.488281 2.363281 7.488281 C 2.347656 7.488281 2.335938 7.5 2.335938 7.519531 C 2.335938 7.535156 2.296875 7.609375 2.246094 7.6875 C 2.195312 7.761719 2.128906 7.882812 2.09375 7.953125 C 2.058594 8.023438 2.019531 8.085938 2.007812 8.089844 C 1.996094 8.097656 1.984375 8.128906 1.984375 8.160156 C 1.984375 8.191406 1.972656 8.222656 1.960938 8.230469 C 1.945312 8.234375 1.90625 8.296875 1.867188 8.367188 C 1.832031 8.4375 1.765625 8.5625 1.722656 8.640625 C 1.683594 8.71875 1.636719 8.789062 1.625 8.792969 C 1.609375 8.800781 1.601562 8.832031 1.601562 8.867188 C 1.601562 8.902344 1.585938 8.929688 1.566406 8.929688 C 1.550781 8.929688 1.535156 8.957031 1.535156 8.992188 C 1.535156 9.027344 1.523438 9.054688 1.503906 9.054688 C 1.488281 9.054688 1.472656 9.082031 1.472656 9.117188 C 1.472656 9.152344 1.457031 9.1875 1.441406 9.199219 C 1.421875 9.210938 1.40625 9.246094 1.40625 9.28125 C 1.40625 9.316406 1.394531 9.34375 1.375 9.34375 C 1.359375 9.34375 1.34375 9.371094 1.34375 9.40625 C 1.34375 9.441406 1.328125 9.472656 1.3125 9.472656 C 1.292969 9.472656 1.28125 9.492188 1.28125 9.519531 C 1.28125 9.546875 1.265625 9.597656 1.246094 9.632812 C 1.230469 9.667969 1.203125 9.726562 1.183594 9.757812 C 1.167969 9.792969 1.152344 9.84375 1.152344 9.871094 C 1.152344 9.898438 1.136719 9.921875 1.121094 9.921875 C 1.101562 9.921875 1.089844 9.957031 1.089844 10 C 1.089844 10.042969 1.074219 10.085938 1.054688 10.097656 C 1.039062 10.105469 1.023438 10.144531 1.023438 10.179688 C 1.023438 10.210938 1.011719 10.238281 1 10.238281 C 0.984375 10.238281 0.972656 10.265625 0.96875 10.300781 C 0.964844 10.332031 0.9375 10.421875 0.902344 10.5 C 0.804688 10.71875 0.671875 11.152344 0.671875 11.242188 C 0.671875 11.289062 0.65625 11.328125 0.640625 11.328125 C 0.621094 11.328125 0.609375 11.371094 0.609375 11.421875 C 0.609375 11.472656 0.59375 11.523438 0.574219 11.535156 C 0.558594 11.546875 0.542969 11.605469 0.542969 11.664062 C 0.542969 11.726562 0.53125 11.777344 0.511719 11.777344 C 0.496094 11.777344 0.480469 11.816406 0.480469 11.871094 C 0.480469 11.921875 0.464844 11.972656 0.449219 11.984375 C 0.429688 11.996094 0.414062 12.058594 0.414062 12.128906 C 0.414062 12.195312 0.402344 12.261719 0.382812 12.273438 C 0.367188 12.28125 0.351562 12.347656 0.351562 12.417969 C 0.351562 12.488281 0.335938 12.542969 0.320312 12.542969 C 0.300781 12.542969 0.289062 12.601562 0.289062 12.671875 C 0.289062 12.738281 0.273438 12.804688 0.257812 12.816406 C 0.238281 12.828125 0.222656 12.90625 0.222656 12.992188 C 0.222656 13.078125 0.210938 13.15625 0.191406 13.167969 C 0.175781 13.179688 0.160156 13.265625 0.160156 13.363281 C 0.160156 13.457031 0.144531 13.535156 0.128906 13.535156 C 0.109375 13.535156 0.0976562 13.628906 0.0976562 13.753906 C 0.0976562 13.886719 0.0820312 13.988281 0.0546875 14.011719 C -0.00390625 14.070312 -0.00390625 17.929688 0.0546875 17.988281 C 0.0820312 18.011719 0.0976562 18.113281 0.0976562 18.246094 C 0.0976562 18.371094 0.109375 18.464844 0.128906 18.464844 C 0.144531 18.464844 0.160156 18.542969 0.160156 18.636719 C 0.160156 18.734375 0.175781 18.820312 0.191406 18.832031 C 0.210938 18.84375 0.222656 18.921875 0.222656 19.007812 C 0.222656 19.09375 0.238281 19.171875 0.257812 19.183594 C 0.273438 19.195312 0.289062 19.261719 0.289062 19.328125 C 0.289062 19.398438 0.300781 19.457031 0.320312 19.457031 C 0.335938 19.457031 0.351562 19.511719 0.351562 19.582031 C 0.351562 19.652344 0.367188 19.71875 0.382812 19.726562 C 0.402344 19.738281 0.414062 19.804688 0.414062 19.871094 C 0.414062 19.941406 0.429688 20.003906 0.449219 20.015625 C 0.464844 20.027344 0.480469 20.078125 0.480469 20.128906 C 0.480469 20.183594 0.496094 20.222656 0.511719 20.222656 C 0.53125 20.222656 0.542969 20.273438 0.542969 20.335938 C 0.542969 20.394531 0.558594 20.453125 0.574219 20.464844 C 0.59375 20.476562 0.609375 20.527344 0.609375 20.578125 C 0.609375 20.628906 0.621094 20.671875 0.640625 20.671875 C 0.65625 20.671875 0.671875 20.710938 0.671875 20.757812 C 0.671875 20.847656 0.804688 21.28125 0.902344 21.5 C 0.9375 21.578125 0.964844 21.667969 0.96875 21.699219 C 0.972656 21.734375 0.984375 21.761719 1 21.761719 C 1.011719 21.761719 1.023438 21.789062 1.023438 21.820312 C 1.023438 21.855469 1.039062 21.894531 1.054688 21.902344 C 1.074219 21.914062 1.089844 21.957031 1.089844 22 C 1.089844 22.042969 1.101562 22.078125 1.121094 22.078125 C 1.136719 22.078125 1.152344 22.101562 1.152344 22.128906 C 1.152344 22.175781 1.164062 22.210938 1.242188 22.359375 C 1.261719 22.398438 1.28125 22.453125 1.28125 22.480469 C 1.28125 22.507812 1.292969 22.527344 1.3125 22.527344 C 1.328125 22.527344 1.34375 22.558594 1.34375 22.59375 C 1.34375 22.628906 1.359375 22.65625 1.375 22.65625 C 1.394531 22.65625 1.40625 22.683594 1.40625 22.71875 C 1.40625 22.753906 1.421875 22.789062 1.441406 22.800781 C 1.457031 22.8125 1.472656 22.847656 1.472656 22.882812 C 1.472656 22.917969 1.488281 22.945312 1.503906 22.945312 C 1.523438 22.945312 1.535156 22.972656 1.535156 23.007812 C 1.535156 23.042969 1.550781 23.070312 1.566406 23.070312 C 1.585938 23.070312 1.601562 23.097656 1.601562 23.132812 C 1.601562 23.167969 1.609375 23.199219 1.625 23.207031 C 1.636719 23.210938 1.679688 23.277344 1.71875 23.351562 C 1.757812 23.425781 1.824219 23.550781 1.863281 23.625 C 1.902344 23.699219 1.945312 23.765625 1.960938 23.769531 C 1.972656 23.777344 1.984375 23.808594 1.984375 23.839844 C 1.984375 23.871094 1.996094 23.902344 2.007812 23.910156 C 2.019531 23.914062 2.058594 23.976562 2.09375 24.046875 C 2.128906 24.117188 2.195312 24.238281 2.246094 24.3125 C 2.296875 24.390625 2.335938 24.464844 2.335938 24.480469 C 2.335938 24.5 2.347656 24.511719 2.363281 24.511719 C 2.378906 24.511719 2.410156 24.554688 2.433594 24.609375 C 2.453125 24.660156 2.484375 24.703125 2.5 24.703125 C 2.515625 24.703125 2.527344 24.722656 2.527344 24.746094 C 2.527344 24.769531 2.558594 24.820312 2.59375 24.855469 C 2.628906 24.894531 2.65625 24.945312 2.65625 24.96875 C 2.65625 24.992188 2.683594 25.03125 2.71875 25.054688 C 2.753906 25.082031 2.785156 25.117188 2.785156 25.136719 C 2.785156 25.160156 2.828125 25.21875 2.878906 25.273438 C 2.933594 25.332031 2.976562 25.394531 2.976562 25.417969 C 2.976562 25.4375 3.003906 25.480469 3.039062 25.503906 C 3.074219 25.53125 3.105469 25.570312 3.105469 25.589844 C 3.105469 25.613281 3.117188 25.632812 3.136719 25.632812 C 3.152344 25.632812 3.167969 25.648438 3.167969 25.664062 C 3.167969 25.683594 3.199219 25.730469 3.238281 25.773438 C 3.320312 25.855469 3.414062 25.972656 3.488281 26.082031 C 3.515625 26.125 3.566406 26.191406 3.605469 26.230469 C 3.644531 26.269531 3.667969 26.304688 3.660156 26.304688 C 3.652344 26.304688 3.699219 26.359375 3.765625 26.425781 C 3.835938 26.488281 3.925781 26.59375 3.96875 26.65625 C 4.050781 26.769531 4.496094 27.230469 4.515625 27.21875 C 4.523438 27.21875 4.589844 27.277344 4.660156 27.351562 C 4.734375 27.425781 4.789062 27.488281 4.78125 27.488281 C 4.75 27.488281 5.234375 27.957031 5.34375 28.03125 C 5.40625 28.074219 5.511719 28.164062 5.574219 28.234375 C 5.640625 28.300781 5.695312 28.347656 5.695312 28.339844 C 5.695312 28.332031 5.730469 28.355469 5.769531 28.394531 C 5.808594 28.433594 5.875 28.484375 5.917969 28.511719 C 6.027344 28.585938 6.144531 28.679688 6.226562 28.761719 C 6.269531 28.800781 6.316406 28.832031 6.335938 28.832031 C 6.351562 28.832031 6.367188 28.847656 6.367188 28.863281 C 6.367188 28.882812 6.386719 28.894531 6.410156 28.894531 C 6.429688 28.894531 6.46875 28.925781 6.496094 28.960938 C 6.519531 28.996094 6.5625 29.023438 6.582031 29.023438 C 6.605469 29.023438 6.667969 29.066406 6.726562 29.121094 C 6.78125 29.171875 6.839844 29.214844 6.863281 29.214844 C 6.882812 29.214844 6.917969 29.246094 6.945312 29.28125 C 6.96875 29.316406 7.007812 29.34375 7.03125 29.34375 C 7.054688 29.34375 7.105469 29.371094 7.144531 29.40625 C 7.179688 29.441406 7.230469 29.472656 7.253906 29.472656 C 7.277344 29.472656 7.296875 29.484375 7.296875 29.5 C 7.296875 29.515625 7.339844 29.546875 7.390625 29.566406 C 7.445312 29.589844 7.488281 29.621094 7.488281 29.636719 C 7.488281 29.652344 7.5 29.664062 7.519531 29.664062 C 7.535156 29.664062 7.609375 29.703125 7.6875 29.753906 C 7.761719 29.804688 7.882812 29.871094 7.953125 29.90625 C 8.023438 29.941406 8.085938 29.980469 8.089844 29.992188 C 8.097656 30.003906 8.128906 30.015625 8.160156 30.015625 C 8.191406 30.015625 8.222656 30.027344 8.230469 30.039062 C 8.234375 30.054688 8.300781 30.097656 8.375 30.136719 C 8.449219 30.175781 8.574219 30.242188 8.648438 30.28125 C 8.722656 30.320312 8.789062 30.363281 8.792969 30.375 C 8.800781 30.390625 8.832031 30.398438 8.867188 30.398438 C 8.902344 30.398438 8.929688 30.414062 8.929688 30.433594 C 8.929688 30.449219 8.957031 30.464844 8.992188 30.464844 C 9.027344 30.464844 9.054688 30.476562 9.054688 30.496094 C 9.054688 30.511719 9.082031 30.527344 9.117188 30.527344 C 9.152344 30.527344 9.1875 30.542969 9.199219 30.558594 C 9.210938 30.578125 9.246094 30.59375 9.28125 30.59375 C 9.316406 30.59375 9.34375 30.605469 9.34375 30.625 C 9.34375 30.640625 9.371094 30.65625 9.40625 30.65625 C 9.441406 30.65625 9.472656 30.671875 9.472656 30.6875 C 9.472656 30.707031 9.492188 30.71875 9.519531 30.71875 C 9.546875 30.71875 9.597656 30.734375 9.632812 30.753906 C 9.667969 30.769531 9.726562 30.796875 9.757812 30.816406 C 9.792969 30.832031 9.84375 30.847656 9.871094 30.847656 C 9.898438 30.847656 9.921875 30.863281 9.921875 30.878906 C 9.921875 30.898438 9.957031 30.910156 10 30.910156 C 10.042969 30.910156 10.085938 30.925781 10.097656 30.945312 C 10.105469 30.960938 10.144531 30.976562 10.179688 30.976562 C 10.210938 30.976562 10.238281 30.988281 10.238281 31 C 10.238281 31.015625 10.265625 31.027344 10.300781 31.03125 C 10.332031 31.035156 10.421875 31.0625 10.5 31.097656 C 10.71875 31.195312 11.152344 31.328125 11.242188 31.328125 C 11.289062 31.328125 11.328125 31.34375 11.328125 31.359375 C 11.328125 31.378906 11.371094 31.390625 11.421875 31.390625 C 11.472656 31.390625 11.523438 31.40625 11.535156 31.425781 C 11.546875 31.441406 11.605469 31.457031 11.664062 31.457031 C 11.726562 31.457031 11.777344 31.46875 11.777344 31.488281 C 11.777344 31.503906 11.816406 31.519531 11.871094 31.519531 C 11.921875 31.519531 11.972656 31.535156 11.984375 31.550781 C 11.996094 31.570312 12.058594 31.585938 12.128906 31.585938 C 12.195312 31.585938 12.261719 31.597656 12.273438 31.617188 C 12.28125 31.632812 12.347656 31.648438 12.417969 31.648438 C 12.488281 31.648438 12.542969 31.664062 12.542969 31.679688 C 12.542969 31.699219 12.601562 31.710938 12.671875 31.710938 C 12.738281 31.710938 12.804688 31.726562 12.816406 31.742188 C 12.828125 31.761719 12.90625 31.777344 12.992188 31.777344 C 13.078125 31.777344 13.15625 31.789062 13.167969 31.808594 C 13.179688 31.824219 13.265625 31.839844 13.363281 31.839844 C 13.457031 31.839844 13.535156 31.855469 13.535156 31.871094 C 13.535156 31.890625 13.628906 31.902344 13.753906 31.902344 C 13.875 31.902344 13.984375 31.917969 14.003906 31.933594 C 14.019531 31.953125 14.375 31.976562 14.800781 31.988281 L 15.566406 32.007812 L 11.929688 28.363281 C 8.488281 24.917969 8.21875 24.640625 8.335938 24.640625 C 8.363281 24.640625 8.382812 24.625 8.382812 24.609375 C 8.382812 24.589844 8.414062 24.574219 8.449219 24.574219 C 8.484375 24.574219 8.511719 24.5625 8.511719 24.542969 C 8.511719 24.527344 8.527344 24.511719 8.542969 24.511719 C 8.558594 24.511719 8.648438 24.464844 8.742188 24.410156 C 9.105469 24.195312 9.511719 23.96875 9.539062 23.96875 C 9.554688 23.96875 9.566406 23.957031 9.566406 23.945312 C 9.570312 23.929688 9.601562 23.90625 9.640625 23.886719 C 9.742188 23.839844 9.996094 23.699219 10.015625 23.679688 C 10.09375 23.605469 10.304688 23.550781 10.304688 23.609375 C 10.304688 23.621094 10.347656 23.660156 10.398438 23.691406 C 10.449219 23.722656 10.515625 23.765625 10.539062 23.792969 C 10.605469 23.859375 11.15625 24.199219 11.429688 24.34375 C 11.558594 24.410156 11.667969 24.476562 11.675781 24.488281 C 11.679688 24.5 11.714844 24.511719 11.746094 24.511719 C 11.78125 24.511719 11.808594 24.527344 11.808594 24.542969 C 11.808594 24.5625 11.835938 24.574219 11.871094 24.574219 C 11.902344 24.574219 11.941406 24.589844 11.953125 24.609375 C 11.960938 24.625 12 24.640625 12.035156 24.640625 C 12.066406 24.640625 12.097656 24.65625 12.097656 24.671875 C 12.097656 24.691406 12.125 24.703125 12.160156 24.703125 C 12.195312 24.703125 12.222656 24.71875 12.222656 24.734375 C 12.222656 24.753906 12.253906 24.769531 12.289062 24.769531 C 12.351562 24.769531 12.351562 24.789062 12.351562 25.921875 C 12.351562 26.996094 12.355469 27.070312 12.40625 27.070312 C 12.441406 27.066406 12.449219 27.058594 12.425781 27.050781 C 12.394531 27.039062 12.382812 26.777344 12.382812 25.902344 L 12.382812 24.769531 L 11.953125 24.5625 C 11.457031 24.324219 10.867188 23.984375 10.542969 23.742188 C 10.230469 23.511719 10.234375 23.511719 10.09375 23.589844 C 9.859375 23.714844 9.679688 23.816406 9.648438 23.839844 C 9.628906 23.855469 9.5625 23.894531 9.496094 23.933594 C 9.371094 24.003906 9.21875 24.089844 9.046875 24.1875 C 8.144531 24.707031 8.226562 24.679688 8.140625 24.519531 C 8.074219 24.402344 8.003906 24.273438 7.875 24.054688 C 7.84375 24 7.679688 23.714844 7.511719 23.425781 C 7.347656 23.132812 7.164062 22.820312 7.109375 22.726562 C 7.054688 22.632812 7.007812 22.550781 7.007812 22.546875 C 7.007812 22.539062 6.949219 22.4375 6.878906 22.320312 C 6.804688 22.199219 6.71875 22.054688 6.683594 21.996094 C 6.605469 21.855469 6.511719 21.691406 6.4375 21.558594 C 6.277344 21.285156 5.871094 20.582031 5.824219 20.496094 C 5.792969 20.441406 5.722656 20.324219 5.667969 20.230469 C 5.613281 20.136719 5.566406 20.046875 5.566406 20.03125 C 5.566406 20.015625 5.554688 20 5.535156 20 C 5.519531 20 5.503906 19.984375 5.503906 19.96875 C 5.503906 19.953125 5.457031 19.863281 5.402344 19.769531 C 5.347656 19.675781 5.277344 19.554688 5.242188 19.496094 C 5.179688 19.382812 5.089844 19.230469 4.996094 19.0625 C 4.964844 19.007812 4.871094 18.847656 4.789062 18.710938 C 4.589844 18.375 4.582031 18.40625 4.910156 18.222656 C 5.015625 18.164062 5.390625 17.949219 5.9375 17.632812 C 5.988281 17.601562 6.109375 17.53125 6.203125 17.476562 C 6.292969 17.421875 6.382812 17.375 6.394531 17.375 C 6.40625 17.375 6.453125 17.34375 6.5 17.304688 L 6.585938 17.230469 L 6.546875 16.671875 C 6.503906 16.117188 6.507812 16.042969 6.601562 14.820312 C 6.609375 14.75 6.507812 14.683594 5.625 14.179688 C 5.085938 13.867188 4.640625 13.605469 4.640625 13.589844 C 4.640625 13.570312 4.828125 13.234375 5.183594 12.625 C 5.230469 12.542969 6.179688 10.898438 6.371094 10.566406 C 6.40625 10.511719 6.460938 10.414062 6.496094 10.351562 C 6.578125 10.210938 6.570312 10.21875 7.214844 9.105469 C 7.757812 8.167969 7.824219 8.050781 7.929688 7.863281 C 8.121094 7.535156 8.230469 7.359375 8.246094 7.359375 C 8.253906 7.359375 8.34375 7.410156 8.445312 7.46875 C 8.542969 7.527344 8.6875 7.613281 8.769531 7.65625 C 8.847656 7.699219 9.09375 7.839844 9.3125 7.96875 C 9.53125 8.09375 9.761719 8.230469 9.824219 8.261719 C 9.886719 8.296875 9.996094 8.363281 10.074219 8.40625 C 10.230469 8.5 10.203125 8.507812 10.59375 8.222656 C 10.707031 8.140625 10.851562 8.042969 10.910156 8.007812 C 10.972656 7.972656 11.121094 7.882812 11.242188 7.8125 C 11.359375 7.738281 11.664062 7.578125 11.921875 7.453125 L 12.382812 7.226562 L 12.382812 6.097656 C 12.382812 5.097656 12.390625 4.964844 12.433594 4.949219 C 12.511719 4.917969 19.53125 4.925781 19.574219 4.953125 C 19.605469 4.972656 19.617188 5.253906 19.625 6.109375 L 19.632812 7.234375 L 19.710938 7.28125 C 19.757812 7.308594 19.914062 7.386719 20.0625 7.453125 C 20.582031 7.695312 21.089844 7.996094 21.605469 8.371094 C 21.6875 8.429688 21.765625 8.480469 21.777344 8.480469 C 21.808594 8.480469 22.5625 8.054688 22.921875 7.832031 C 23.058594 7.75 23.179688 7.679688 23.183594 7.679688 C 23.191406 7.679688 23.324219 7.605469 23.472656 7.515625 C 23.625 7.425781 23.761719 7.367188 23.777344 7.382812 C 23.789062 7.394531 23.832031 7.460938 23.867188 7.527344 C 23.90625 7.59375 23.964844 7.695312 23.996094 7.753906 C 24.027344 7.808594 24.296875 8.273438 24.59375 8.785156 C 24.886719 9.292969 25.15625 9.757812 25.1875 9.816406 C 25.222656 9.875 25.273438 9.96875 25.308594 10.023438 C 25.339844 10.082031 25.609375 10.546875 25.902344 11.054688 C 26.199219 11.566406 26.46875 12.03125 26.5 12.089844 C 26.53125 12.144531 26.585938 12.238281 26.621094 12.296875 C 27.253906 13.386719 27.355469 13.582031 27.328125 13.613281 C 27.308594 13.632812 26.867188 13.890625 26.34375 14.195312 C 25.488281 14.6875 25.394531 14.75 25.398438 14.820312 C 25.460938 15.472656 25.476562 16.230469 25.445312 16.699219 L 25.410156 17.230469 L 25.496094 17.304688 C 25.542969 17.34375 25.597656 17.375 25.609375 17.375 C 25.625 17.375 25.695312 17.417969 25.769531 17.464844 C 25.84375 17.515625 25.945312 17.574219 26 17.601562 C 26.054688 17.625 26.101562 17.65625 26.113281 17.664062 C 26.121094 17.671875 26.164062 17.699219 26.203125 17.722656 C 26.382812 17.824219 26.488281 17.882812 26.625 17.964844 C 26.703125 18.007812 26.902344 18.121094 27.0625 18.214844 C 27.421875 18.414062 27.421875 18.332031 27.050781 18.972656 C 26.882812 19.265625 26.699219 19.582031 26.648438 19.679688 C 26.59375 19.777344 26.539062 19.871094 26.527344 19.886719 C 26.511719 19.90625 26.472656 19.972656 26.433594 20.039062 C 26.359375 20.175781 26.265625 20.335938 26.179688 20.488281 C 25.484375 21.6875 25.3125 21.996094 25.3125 22.019531 C 25.3125 22.035156 25.300781 22.046875 25.285156 22.046875 C 25.269531 22.046875 25.246094 22.074219 25.238281 22.105469 C 25.226562 22.136719 25.179688 22.226562 25.132812 22.304688 C 25.085938 22.382812 25.019531 22.496094 24.988281 22.550781 C 24.886719 22.726562 24.824219 22.835938 24.398438 23.566406 C 24.175781 23.957031 23.964844 24.324219 23.929688 24.382812 C 23.894531 24.445312 23.84375 24.53125 23.8125 24.570312 L 23.753906 24.648438 L 23.40625 24.449219 C 23.214844 24.339844 23.007812 24.222656 22.953125 24.1875 C 22.8125 24.105469 22.648438 24.015625 22.503906 23.933594 C 22.4375 23.894531 22.371094 23.855469 22.351562 23.839844 C 22.320312 23.816406 22.140625 23.714844 21.90625 23.589844 C 21.765625 23.511719 21.769531 23.511719 21.457031 23.742188 C 21.132812 23.984375 20.542969 24.324219 20.046875 24.5625 L 19.617188 24.769531 L 19.617188 25.902344 C 19.617188 26.777344 19.605469 27.039062 19.574219 27.050781 C 19.550781 27.058594 19.558594 27.066406 19.59375 27.070312 C 19.644531 27.070312 19.648438 26.996094 19.648438 25.921875 C 19.648438 24.789062 19.648438 24.769531 19.710938 24.769531 C 19.746094 24.769531 19.777344 24.753906 19.777344 24.734375 C 19.777344 24.71875 19.804688 24.703125 19.839844 24.703125 C 19.875 24.703125 19.902344 24.691406 19.902344 24.671875 C 19.902344 24.65625 19.933594 24.640625 19.964844 24.640625 C 20 24.640625 20.039062 24.625 20.046875 24.609375 C 20.058594 24.589844 20.097656 24.574219 20.128906 24.574219 C 20.164062 24.574219 20.191406 24.5625 20.191406 24.542969 C 20.191406 24.527344 20.21875 24.511719 20.253906 24.511719 C 20.285156 24.511719 20.320312 24.5 20.324219 24.488281 C 20.332031 24.476562 20.441406 24.410156 20.570312 24.34375 C 20.84375 24.199219 21.394531 23.859375 21.460938 23.792969 C 21.484375 23.765625 21.550781 23.722656 21.601562 23.691406 C 21.652344 23.660156 21.695312 23.621094 21.695312 23.609375 C 21.695312 23.550781 21.90625 23.605469 21.984375 23.679688 C 22.003906 23.699219 22.257812 23.839844 22.359375 23.886719 C 22.398438 23.90625 22.429688 23.929688 22.433594 23.945312 C 22.433594 23.957031 22.445312 23.96875 22.464844 23.96875 C 22.480469 23.96875 22.605469 24.03125 22.738281 24.113281 C 22.871094 24.191406 22.984375 24.257812 22.992188 24.257812 C 22.996094 24.257812 23.097656 24.3125 23.210938 24.382812 C 23.328125 24.453125 23.4375 24.511719 23.457031 24.511719 C 23.472656 24.511719 23.488281 24.527344 23.488281 24.542969 C 23.488281 24.5625 23.515625 24.574219 23.550781 24.574219 C 23.585938 24.574219 23.617188 24.585938 23.617188 24.601562 C 23.617188 24.621094 23.78125 24.710938 23.792969 24.695312 C 23.792969 24.691406 23.839844 24.617188 23.894531 24.527344 C 24.003906 24.351562 24.351562 23.738281 24.460938 23.535156 C 24.496094 23.464844 24.535156 23.402344 24.542969 23.390625 C 24.574219 23.359375 24.675781 23.183594 24.695312 23.128906 C 24.703125 23.097656 24.722656 23.070312 24.738281 23.070312 C 24.753906 23.070312 24.769531 23.042969 24.769531 23.007812 C 24.769531 22.972656 24.78125 22.945312 24.800781 22.945312 C 24.816406 22.945312 24.832031 22.929688 24.832031 22.910156 C 24.832031 22.890625 24.875 22.8125 24.929688 22.734375 C 24.980469 22.660156 25.023438 22.585938 25.023438 22.574219 C 25.023438 22.5625 25.050781 22.515625 25.082031 22.46875 C 25.117188 22.421875 25.183594 22.304688 25.238281 22.207031 C 25.292969 22.109375 25.398438 21.925781 25.476562 21.792969 C 25.550781 21.660156 25.636719 21.507812 25.664062 21.457031 C 25.691406 21.402344 25.71875 21.351562 25.726562 21.34375 C 25.75 21.324219 25.816406 21.207031 25.902344 21.039062 C 25.9375 20.96875 25.976562 20.90625 25.984375 20.894531 C 25.992188 20.886719 26.019531 20.847656 26.039062 20.808594 C 26.0625 20.769531 26.097656 20.703125 26.121094 20.664062 C 26.140625 20.625 26.167969 20.585938 26.175781 20.574219 C 26.183594 20.566406 26.210938 20.527344 26.234375 20.484375 C 26.40625 20.175781 26.503906 20.011719 26.621094 19.816406 C 26.675781 19.722656 26.71875 19.640625 26.71875 19.632812 C 26.71875 19.625 26.785156 19.507812 26.867188 19.371094 C 26.949219 19.234375 27.042969 19.074219 27.078125 19.015625 C 27.109375 18.957031 27.167969 18.859375 27.203125 18.792969 C 27.433594 18.394531 27.433594 18.382812 27.246094 18.277344 C 27.195312 18.25 27.144531 18.21875 27.136719 18.207031 C 27.128906 18.199219 27.0625 18.160156 26.992188 18.125 C 26.824219 18.039062 26.707031 17.972656 26.6875 17.953125 C 26.679688 17.941406 26.628906 17.914062 26.574219 17.886719 C 26.523438 17.863281 26.472656 17.832031 26.464844 17.824219 C 26.457031 17.816406 26.414062 17.789062 26.375 17.769531 C 26.335938 17.746094 26.273438 17.710938 26.230469 17.6875 C 26.191406 17.664062 26.152344 17.640625 26.144531 17.632812 C 26.125 17.613281 25.871094 17.472656 25.769531 17.425781 C 25.730469 17.40625 25.695312 17.382812 25.695312 17.367188 C 25.695312 17.355469 25.679688 17.34375 25.660156 17.34375 C 25.640625 17.34375 25.585938 17.316406 25.539062 17.28125 L 25.453125 17.222656 L 25.492188 16.714844 C 25.523438 16.332031 25.523438 16.058594 25.496094 15.601562 C 25.445312 14.695312 25.4375 14.785156 25.578125 14.691406 C 25.644531 14.644531 25.765625 14.570312 25.847656 14.527344 C 25.933594 14.484375 26.007812 14.441406 26.015625 14.433594 C 26.023438 14.421875 26.066406 14.398438 26.109375 14.371094 C 26.152344 14.347656 26.234375 14.300781 26.292969 14.269531 C 26.351562 14.234375 26.449219 14.179688 26.507812 14.148438 C 26.566406 14.113281 26.648438 14.066406 26.691406 14.042969 C 26.734375 14.019531 26.773438 13.992188 26.785156 13.984375 C 26.792969 13.976562 26.84375 13.945312 26.894531 13.921875 C 26.949219 13.894531 27 13.863281 27.007812 13.855469 C 27.015625 13.847656 27.097656 13.800781 27.183594 13.753906 C 27.382812 13.648438 27.421875 13.589844 27.363281 13.5 C 27.339844 13.460938 27.292969 13.382812 27.261719 13.324219 C 27.226562 13.265625 27.171875 13.167969 27.140625 13.113281 C 27.105469 13.054688 26.96875 12.8125 26.832031 12.574219 C 26.695312 12.339844 26.558594 12.097656 26.523438 12.039062 C 26.464844 11.941406 26.390625 11.808594 26.300781 11.644531 C 26.273438 11.601562 26.25 11.5625 26.238281 11.550781 C 26.230469 11.542969 26.207031 11.507812 26.1875 11.472656 C 26.105469 11.320312 26.0625 11.246094 26.046875 11.230469 C 26.039062 11.222656 26 11.160156 25.964844 11.089844 C 25.929688 11.019531 25.863281 10.902344 25.824219 10.832031 C 25.785156 10.761719 25.714844 10.640625 25.671875 10.558594 C 25.625 10.480469 25.535156 10.324219 25.46875 10.210938 C 25.398438 10.101562 25.34375 10.003906 25.34375 10 C 25.34375 9.992188 25.296875 9.910156 25.242188 9.816406 C 25.148438 9.660156 25.097656 9.566406 24.988281 9.371094 C 24.964844 9.332031 24.9375 9.289062 24.929688 9.28125 C 24.917969 9.269531 24.890625 9.222656 24.863281 9.167969 C 24.835938 9.113281 24.808594 9.066406 24.800781 9.054688 C 24.792969 9.046875 24.769531 9.011719 24.75 8.976562 C 24.664062 8.824219 24.621094 8.75 24.609375 8.734375 C 24.597656 8.726562 24.5625 8.664062 24.523438 8.59375 C 24.488281 8.523438 24.429688 8.414062 24.394531 8.351562 C 24.117188 7.871094 23.96875 7.601562 23.96875 7.570312 C 23.96875 7.550781 25.777344 9.34375 27.988281 11.550781 L 32.007812 15.566406 L 31.988281 14.800781 C 31.976562 14.375 31.953125 14.019531 31.933594 14.003906 C 31.917969 13.984375 31.902344 13.875 31.902344 13.753906 C 31.902344 13.628906 31.890625 13.535156 31.871094 13.535156 C 31.855469 13.535156 31.839844 13.457031 31.839844 13.363281 C 31.839844 13.265625 31.824219 13.179688 31.808594 13.167969 C 31.789062 13.15625 31.777344 13.078125 31.777344 12.992188 C 31.777344 12.90625 31.761719 12.828125 31.742188 12.816406 C 31.726562 12.804688 31.710938 12.738281 31.710938 12.671875 C 31.710938 12.601562 31.699219 12.542969 31.679688 12.542969 C 31.664062 12.542969 31.648438 12.488281 31.648438 12.417969 C 31.648438 12.347656 31.632812 12.28125 31.617188 12.273438 C 31.597656 12.261719 31.585938 12.195312 31.585938 12.128906 C 31.585938 12.058594 31.570312 11.996094 31.550781 11.984375 C 31.535156 11.972656 31.519531 11.921875 31.519531 11.871094 C 31.519531 11.816406 31.503906 11.777344 31.488281 11.777344 C 31.46875 11.777344 31.457031 11.726562 31.457031 11.664062 C 31.457031 11.605469 31.441406 11.546875 31.425781 11.535156 C 31.40625 11.523438 31.390625 11.472656 31.390625 11.421875 C 31.390625 11.371094 31.378906 11.328125 31.359375 11.328125 C 31.34375 11.328125 31.328125 11.289062 31.328125 11.242188 C 31.328125 11.152344 31.195312 10.71875 31.097656 10.5 C 31.0625 10.421875 31.035156 10.332031 31.03125 10.300781 C 31.027344 10.265625 31.015625 10.238281 31 10.238281 C 30.988281 10.238281 30.976562 10.210938 30.976562 10.179688 C 30.976562 10.144531 30.960938 10.105469 30.945312 10.097656 C 30.925781 10.085938 30.910156 10.042969 30.910156 10 C 30.910156 9.957031 30.898438 9.921875 30.878906 9.921875 C 30.863281 9.921875 30.847656 9.898438 30.847656 9.871094 C 30.847656 9.84375 30.832031 9.792969 30.816406 9.757812 C 30.796875 9.726562 30.769531 9.667969 30.753906 9.632812 C 30.734375 9.597656 30.71875 9.546875 30.71875 9.519531 C 30.71875 9.492188 30.707031 9.472656 30.6875 9.472656 C 30.671875 9.472656 30.65625 9.441406 30.65625 9.40625 C 30.65625 9.371094 30.640625 9.34375 30.625 9.34375 C 30.605469 9.34375 30.59375 9.316406 30.59375 9.28125 C 30.59375 9.246094 30.578125 9.210938 30.558594 9.199219 C 30.542969 9.1875 30.527344 9.152344 30.527344 9.117188 C 30.527344 9.082031 30.511719 9.054688 30.496094 9.054688 C 30.476562 9.054688 30.464844 9.027344 30.464844 8.992188 C 30.464844 8.957031 30.449219 8.929688 30.433594 8.929688 C 30.414062 8.929688 30.398438 8.902344 30.398438 8.867188 C 30.398438 8.832031 30.390625 8.800781 30.375 8.792969 C 30.363281 8.789062 30.320312 8.722656 30.28125 8.648438 C 30.242188 8.574219 30.175781 8.449219 30.136719 8.375 C 30.097656 8.300781 30.054688 8.234375 30.039062 8.230469 C 30.027344 8.222656 30.015625 8.191406 30.015625 8.160156 C 30.015625 8.128906 30.003906 8.097656 29.992188 8.089844 C 29.980469 8.085938 29.941406 8.023438 29.90625 7.953125 C 29.871094 7.882812 29.804688 7.761719 29.753906 7.6875 C 29.703125 7.609375 29.664062 7.535156 29.664062 7.519531 C 29.664062 7.5 29.652344 7.488281 29.636719 7.488281 C 29.621094 7.488281 29.589844 7.445312 29.566406 7.390625 C 29.546875 7.339844 29.515625 7.296875 29.5 7.296875 C 29.484375 7.296875 29.472656 7.277344 29.472656 7.253906 C 29.472656 7.230469 29.441406 7.179688 29.40625 7.144531 C 29.371094 7.105469 29.34375 7.054688 29.34375 7.03125 C 29.34375 7.007812 29.316406 6.96875 29.28125 6.945312 C 29.246094 6.917969 29.214844 6.882812 29.214844 6.863281 C 29.214844 6.839844 29.171875 6.78125 29.121094 6.726562 C 29.066406 6.667969 29.023438 6.605469 29.023438 6.582031 C 29.023438 6.5625 28.996094 6.519531 28.960938 6.496094 C 28.925781 6.46875 28.894531 6.429688 28.894531 6.410156 C 28.894531 6.386719 28.882812 6.367188 28.863281 6.367188 C 28.847656 6.367188 28.832031 6.351562 28.832031 6.335938 C 28.832031 6.316406 28.800781 6.269531 28.761719 6.226562 C 28.679688 6.144531 28.585938 6.027344 28.511719 5.917969 C 28.484375 5.875 28.433594 5.808594 28.394531 5.769531 C 28.355469 5.730469 28.332031 5.695312 28.339844 5.695312 C 28.347656 5.695312 28.300781 5.640625 28.234375 5.574219 C 28.164062 5.511719 28.074219 5.40625 28.03125 5.34375 C 27.957031 5.234375 27.488281 4.75 27.488281 4.78125 C 27.488281 4.789062 27.425781 4.734375 27.351562 4.660156 C 27.277344 4.589844 27.21875 4.523438 27.21875 4.515625 C 27.230469 4.496094 26.769531 4.050781 26.65625 3.96875 C 26.59375 3.925781 26.488281 3.835938 26.425781 3.765625 C 26.359375 3.699219 26.304688 3.652344 26.304688 3.660156 C 26.304688 3.667969 26.269531 3.644531 26.230469 3.605469 C 26.191406 3.566406 26.125 3.515625 26.082031 3.488281 C 25.972656 3.414062 25.855469 3.320312 25.773438 3.238281 C 25.730469 3.199219 25.683594 3.167969 25.664062 3.167969 C 25.648438 3.167969 25.632812 3.152344 25.632812 3.136719 C 25.632812 3.117188 25.613281 3.105469 25.589844 3.105469 C 25.570312 3.105469 25.53125 3.074219 25.503906 3.039062 C 25.480469 3.003906 25.4375 2.976562 25.417969 2.976562 C 25.394531 2.976562 25.332031 2.933594 25.273438 2.878906 C 25.21875 2.828125 25.160156 2.785156 25.136719 2.785156 C 25.117188 2.785156 25.082031 2.753906 25.054688 2.71875 C 25.03125 2.683594 24.992188 2.65625 24.96875 2.65625 C 24.945312 2.65625 24.894531 2.628906 24.855469 2.59375 C 24.820312 2.558594 24.769531 2.527344 24.746094 2.527344 C 24.722656 2.527344 24.703125 2.515625 24.703125 2.5 C 24.703125 2.484375 24.660156 2.453125 24.609375 2.433594 C 24.554688 2.410156 24.511719 2.378906 24.511719 2.363281 C 24.511719 2.347656 24.5 2.335938 24.480469 2.335938 C 24.464844 2.335938 24.390625 2.296875 24.3125 2.246094 C 24.238281 2.195312 24.117188 2.128906 24.046875 2.09375 C 23.976562 2.058594 23.914062 2.019531 23.910156 2.007812 C 23.902344 1.996094 23.871094 1.984375 23.839844 1.984375 C 23.808594 1.984375 23.777344 1.972656 23.769531 1.960938 C 23.765625 1.945312 23.695312 1.902344 23.617188 1.859375 C 23.535156 1.816406 23.414062 1.753906 23.34375 1.714844 C 23.273438 1.679688 23.210938 1.636719 23.207031 1.625 C 23.199219 1.609375 23.167969 1.601562 23.132812 1.601562 C 23.097656 1.601562 23.070312 1.585938 23.070312 1.566406 C 23.070312 1.550781 23.042969 1.535156 23.007812 1.535156 C 22.972656 1.535156 22.945312 1.523438 22.945312 1.503906 C 22.945312 1.488281 22.917969 1.472656 22.882812 1.472656 C 22.847656 1.472656 22.8125 1.457031 22.800781 1.441406 C 22.789062 1.421875 22.753906 1.40625 22.71875 1.40625 C 22.683594 1.40625 22.65625 1.394531 22.65625 1.375 C 22.65625 1.359375 22.628906 1.34375 22.59375 1.34375 C 22.558594 1.34375 22.527344 1.328125 22.527344 1.3125 C 22.527344 1.292969 22.507812 1.28125 22.480469 1.28125 C 22.453125 1.28125 22.402344 1.265625 22.367188 1.246094 C 22.332031 1.230469 22.273438 1.203125 22.242188 1.183594 C 22.207031 1.167969 22.15625 1.152344 22.128906 1.152344 C 22.101562 1.152344 22.078125 1.136719 22.078125 1.121094 C 22.078125 1.101562 22.042969 1.089844 22 1.089844 C 21.957031 1.089844 21.914062 1.074219 21.902344 1.054688 C 21.894531 1.039062 21.855469 1.023438 21.820312 1.023438 C 21.789062 1.023438 21.761719 1.011719 21.761719 1 C 21.761719 0.984375 21.734375 0.972656 21.699219 0.96875 C 21.667969 0.964844 21.578125 0.9375 21.5 0.902344 C 21.28125 0.804688 20.847656 0.671875 20.757812 0.671875 C 20.710938 0.671875 20.671875 0.65625 20.671875 0.640625 C 20.671875 0.621094 20.628906 0.609375 20.578125 0.609375 C 20.527344 0.609375 20.476562 0.59375 20.464844 0.574219 C 20.453125 0.558594 20.394531 0.542969 20.335938 0.542969 C 20.273438 0.542969 20.222656 0.53125 20.222656 0.511719 C 20.222656 0.496094 20.183594 0.480469 20.128906 0.480469 C 20.078125 0.480469 20.027344 0.464844 20.015625 0.449219 C 20.003906 0.429688 19.941406 0.414062 19.871094 0.414062 C 19.804688 0.414062 19.738281 0.402344 19.726562 0.382812 C 19.71875 0.367188 19.652344 0.351562 19.582031 0.351562 C 19.511719 0.351562 19.457031 0.335938 19.457031 0.320312 C 19.457031 0.300781 19.398438 0.289062 19.328125 0.289062 C 19.261719 0.289062 19.195312 0.273438 19.183594 0.257812 C 19.171875 0.238281 19.09375 0.222656 19.007812 0.222656 C 18.921875 0.222656 18.84375 0.210938 18.832031 0.191406 C 18.820312 0.175781 18.734375 0.160156 18.636719 0.160156 C 18.542969 0.160156 18.464844 0.144531 18.464844 0.128906 C 18.464844 0.109375 18.371094 0.0976562 18.246094 0.0976562 C 18.117188 0.0976562 18.011719 0.078125 17.988281 0.0585938 C 17.953125 0.0195312 15.027344 -0.0078125 14.320312 0.0234375 M 22.457031 8.054688 C 22.363281 8.113281 22.25 8.179688 22.199219 8.199219 C 22.152344 8.222656 22.113281 8.25 22.113281 8.265625 C 22.113281 8.277344 22.09375 8.289062 22.070312 8.289062 C 22.050781 8.289062 21.996094 8.316406 21.953125 8.351562 C 21.871094 8.414062 21.710938 8.4375 21.691406 8.390625 C 21.679688 8.363281 21.265625 8.078125 20.929688 7.867188 C 20.746094 7.75 20.113281 7.425781 19.816406 7.292969 L 19.648438 7.214844 L 19.648438 4.976562 L 22.621094 7.949219 L 22.457031 8.054688 M 4.90625 13.800781 C 4.945312 13.820312 4.984375 13.847656 4.992188 13.855469 C 5 13.863281 5.050781 13.894531 5.105469 13.921875 C 5.15625 13.945312 5.207031 13.976562 5.214844 13.984375 C 5.226562 13.992188 5.265625 14.019531 5.308594 14.042969 C 5.351562 14.066406 5.433594 14.113281 5.492188 14.148438 C 5.550781 14.179688 5.648438 14.234375 5.707031 14.269531 C 5.765625 14.300781 5.847656 14.347656 5.890625 14.371094 C 5.933594 14.398438 5.976562 14.421875 5.984375 14.433594 C 5.992188 14.441406 6.066406 14.484375 6.152344 14.527344 C 6.234375 14.570312 6.355469 14.644531 6.421875 14.691406 L 6.542969 14.773438 L 6.535156 14.996094 C 6.523438 15.265625 6.5 15.425781 6.46875 15.425781 C 6.457031 15.425781 6.074219 15.050781 5.617188 14.59375 C 5.160156 14.132812 4.796875 13.761719 4.808594 13.761719 C 4.820312 13.761719 4.863281 13.777344 4.90625 13.800781 "/>
<path style=" stroke:none;fill-rule:evenodd;fill:rgb(92.54902%,93.72549%,95.294118%);fill-opacity:1;" d="M 13.683594 12.5625 C 13.652344 12.648438 13.660156 19.449219 13.695312 19.46875 C 13.710938 19.480469 13.933594 19.367188 14.195312 19.214844 C 14.453125 19.066406 14.667969 18.945312 14.671875 18.945312 C 14.679688 18.945312 14.777344 18.886719 14.890625 18.816406 C 15.007812 18.746094 15.113281 18.6875 15.121094 18.6875 C 15.132812 18.6875 15.179688 18.660156 15.226562 18.628906 C 15.273438 18.59375 15.367188 18.535156 15.433594 18.5 C 15.683594 18.359375 15.839844 18.265625 16.460938 17.90625 C 16.722656 17.757812 16.941406 17.632812 16.945312 17.632812 C 16.953125 17.632812 17.074219 17.558594 17.214844 17.472656 C 17.359375 17.382812 17.480469 17.3125 17.488281 17.3125 C 17.496094 17.3125 17.578125 17.265625 17.671875 17.210938 C 17.832031 17.117188 17.882812 17.085938 18.160156 16.929688 C 18.222656 16.894531 18.320312 16.835938 18.375 16.804688 C 18.433594 16.769531 18.617188 16.664062 18.785156 16.570312 C 18.953125 16.472656 19.164062 16.347656 19.257812 16.292969 C 19.351562 16.238281 19.433594 16.191406 19.441406 16.191406 C 19.484375 16.191406 19.710938 16.019531 19.703125 15.992188 C 19.699219 15.972656 19.636719 15.929688 19.566406 15.886719 C 19.496094 15.847656 19.023438 15.574219 18.511719 15.28125 C 17.539062 14.71875 17.441406 14.660156 17.273438 14.5625 C 17.214844 14.53125 16.75 14.261719 16.238281 13.96875 C 15.292969 13.421875 15.183594 13.359375 15 13.253906 C 14.941406 13.21875 14.628906 13.039062 14.304688 12.851562 C 13.632812 12.460938 13.707031 12.5 13.683594 12.5625 "/>
</g>
</svg>
